<?xml version="1.0" encoding="UTF-8"?>
<svg version="1.1" xmlns="http://www.w3.org/2000/svg" width="512" height="512">
<path d="M0 0 C1.63057265 -0.00668677 1.63057265 -0.00668677 3.29408616 -0.01350862 C5.06939398 -0.01323207 5.06939398 -0.01323207 6.8805666 -0.01294994 C8.14635573 -0.01662663 9.41214487 -0.02030332 10.71629125 -0.02409142 C14.22334612 -0.03407715 17.73038389 -0.0378227 21.23745096 -0.04048073 C25.02302769 -0.04439419 28.808591 -0.05397203 32.59415913 -0.0626936 C41.73532147 -0.08243236 50.87648488 -0.09252258 60.01766321 -0.10142139 C64.32923753 -0.10580999 68.64081063 -0.11117545 72.952384 -0.11641026 C87.29817639 -0.13342269 101.64396805 -0.14791366 115.98976898 -0.155159 C119.71047371 -0.1570687 123.43117842 -0.15898906 127.15188313 -0.16094494 C128.07657803 -0.16142868 129.00127293 -0.16191242 129.95398889 -0.16241082 C144.91081887 -0.1706991 159.86756857 -0.1960156 174.82436355 -0.22852562 C190.2029856 -0.26167802 205.58156698 -0.27961527 220.96022493 -0.28280324 C229.5853869 -0.28496117 238.21043191 -0.29360377 246.83555889 -0.31926441 C254.18630954 -0.34108379 261.53691484 -0.34896721 268.8876942 -0.33929763 C272.63087095 -0.3347847 276.37374852 -0.33646084 280.11688328 -0.35605907 C316.42743553 -0.53541306 345.60661145 7.366208 373.00466633 32.70062733 C391.60916996 51.27531605 406.52481733 78.72719283 406.57638741 105.69205475 C406.58084525 106.77910318 406.58530309 107.86615161 406.58989602 108.98614091 C406.58961948 110.76144872 406.58961948 110.76144872 406.58933735 112.57262135 C406.59301404 113.83841048 406.59669073 115.10419962 406.60047883 116.408346 C406.61046455 119.91540087 406.6142101 123.42243864 406.61686814 126.92950571 C406.6207816 130.71508243 406.63035943 134.50064575 406.639081 138.28621387 C406.65881977 147.42737622 406.66890998 156.56853963 406.67780879 165.70971796 C406.68219739 170.02129228 406.68756285 174.33286538 406.69279766 178.64443874 C406.70981009 192.99023114 406.72430106 207.33602279 406.7315464 221.68182373 C406.73345611 225.40252846 406.73537647 229.12323317 406.73733234 232.84393787 C406.73781608 233.76863278 406.73829982 234.69332768 406.73879822 235.64604364 C406.74708651 250.60287362 406.77240301 265.55962332 406.80491302 280.5164183 C406.83806543 295.89504035 406.85600268 311.27362173 406.85919064 326.65227968 C406.86134857 335.27744165 406.86999117 343.90248666 406.89565182 352.52761364 C406.91747119 359.87836429 406.92535461 367.22896959 406.91568504 374.57974895 C406.9111721 378.3229257 406.91284825 382.06580326 406.93244648 385.80893803 C407.11180046 422.11949028 399.21017941 451.2986662 373.87576008 478.69672108 C355.30107136 497.30122471 327.84919457 512.21687208 300.88433266 512.26844215 C299.79728422 512.2729 298.71023579 512.27735784 297.5902465 512.28195077 C296.40670795 512.28176641 295.22316941 512.28158205 294.00376606 512.2813921 C292.73797692 512.28506879 291.47218779 512.28874547 290.16804141 512.29253358 C286.66098653 512.3025193 283.15394877 512.30626485 279.6468817 512.30892289 C275.86130497 512.31283635 272.07574166 512.32241418 268.29017353 512.33113575 C259.14901118 512.35087451 250.00784777 512.36096473 240.86666945 512.36986354 C236.55509513 512.37425214 232.24352202 512.3796176 227.93194866 512.38485241 C213.58615626 512.40186484 199.24036461 512.41635581 184.89456367 512.42360115 C181.17385895 512.42551086 177.45315423 512.42743121 173.73244953 512.42938709 C172.80775463 512.42987083 171.88305973 512.43035457 170.93034377 512.43085297 C155.97351378 512.43914126 141.01676409 512.46445776 126.0599691 512.49696777 C110.68134706 512.53012017 95.30276568 512.54805743 79.92410773 512.55124539 C71.29894576 512.55340332 62.67390075 512.56204592 54.04877377 512.58770657 C46.69802311 512.60952594 39.34741782 512.61740936 31.99663845 512.60773978 C28.25346171 512.60322685 24.51058414 512.604903 20.76744938 512.62450123 C-15.54310288 512.80385521 -44.7222788 504.90223416 -72.12033367 479.56781483 C-90.7248373 460.99312611 -105.64048468 433.54124932 -105.69205475 406.57638741 C-105.69651259 405.48933897 -105.70097044 404.40229054 -105.70556337 403.28230125 C-105.705379 402.0987627 -105.70519464 400.91522416 -105.70500469 399.69582081 C-105.70868138 398.43003167 -105.71235807 397.16424254 -105.71614617 395.86009616 C-105.7261319 392.35304128 -105.72987745 388.84600352 -105.73253548 385.33893645 C-105.73644894 381.55335972 -105.74602678 377.76779641 -105.75474834 373.98222828 C-105.77448711 364.84106593 -105.78457732 355.69990252 -105.79347613 346.55872419 C-105.79786474 342.24714987 -105.80323019 337.93557677 -105.808465 333.62400341 C-105.82547744 319.27821101 -105.83996841 304.93241936 -105.84721375 290.58661842 C-105.84912345 286.8659137 -105.85104381 283.14520898 -105.85299969 279.42450428 C-105.85348343 278.49980938 -105.85396717 277.57511448 -105.85446557 276.62239852 C-105.86275385 261.66556853 -105.88807035 246.70881883 -105.92058036 231.75202385 C-105.95373277 216.3734018 -105.97167002 200.99482043 -105.97485799 185.61616248 C-105.97701592 176.99100051 -105.98565852 168.36595549 -106.01131916 159.74082851 C-106.03313854 152.39007786 -106.04102195 145.03947257 -106.03135238 137.6886932 C-106.02683945 133.94551646 -106.02851559 130.20263889 -106.04811382 126.45950413 C-106.22746781 90.14895187 -98.32584675 60.96977595 -72.99142742 33.57172108 C-54.4167387 14.96721745 -26.96486192 0.05157007 0 0 Z " fill="#F8F8F8" transform="translate(105.55783367156982,-0.13422107696533203)"/>
<path d="M0 0 C8.23658678 5.25777762 15.64723932 15.58895727 18 25 C23.15257055 58.82660693 19.09425863 91.68010152 10.63037109 124.53173828 C10.12567788 126.49735989 9.63110069 128.46535703 9.13671875 130.43359375 C4.09705845 150.22370095 -1.73361881 167.10872578 -19.93359375 178.17578125 C-22.40168278 179.16021752 -24.36434056 179.05726744 -27 179 C-26.823479 179.79059814 -26.64695801 180.58119629 -26.46508789 181.39575195 C-25.65716318 185.03314004 -24.8597756 188.67276356 -24.0625 192.3125 C-23.78470703 193.55580078 -23.50691406 194.79910156 -23.22070312 196.08007812 C-21.62900489 203.38654832 -20.43899319 210.53132685 -20 218 C-21.32 217.67 -22.64 217.34 -24 217 C-24.10546143 216.30028076 -24.21092285 215.60056152 -24.31958008 214.87963867 C-24.81056516 211.64787524 -25.31147852 208.4177221 -25.8125 205.1875 C-25.97814453 204.08728516 -26.14378906 202.98707031 -26.31445312 201.85351562 C-27.15628154 196.46899047 -28.08989343 191.10899438 -29.3125 185.796875 C-29.61027344 184.47768066 -29.61027344 184.47768066 -29.9140625 183.13183594 C-30.8538856 180.75995795 -30.8538856 180.75995795 -33.51318359 179.76586914 C-36.3257376 179.02614227 -39.13894229 178.51625146 -42 178 C-53.81068315 173.98436773 -62.17092604 163.56519655 -68 153 C-73.61814819 140.88586797 -76.55055625 128.77775709 -76.375 115.4375 C-76.36484863 114.30779785 -76.35469727 113.1780957 -76.34423828 112.01416016 C-75.9505796 90.4666878 -69.9236282 73.56667445 -61.39038086 54.07226562 C-58.7663555 48.00843862 -56.52469368 41.89140136 -54.4375 35.625 C-49.17247323 20.06094858 -42.48937855 6.04987883 -27.2734375 -1.90234375 C-18.22535363 -5.94233182 -8.36430079 -5.14851136 0 0 Z " fill="#D7D4CB" transform="translate(460,287)"/>
<path d="M0 0 C8.58 0 17.16 0 26 0 C26 25.74 26 51.48 26 78 C43.49 78 60.98 78 79 78 C79 86.91 79 95.82 79 105 C52.93 105 26.86 105 0 105 C0 70.35 0 35.7 0 0 Z " fill="#444444" transform="translate(181,212)"/>
<path d="M0 0 C4.41067918 1.17618112 6.64479634 2.04687055 9 6 C10.28633494 13.32706472 8.35360331 20.71299661 6.80078125 27.8515625 C5.30067405 35.14389858 4.72066502 42.59834637 4 50 C4.99 50 5.98 50 7 50 C7.07605469 49.47535156 7.15210938 48.95070313 7.23046875 48.41015625 C8.31419511 45.01594728 10.28347477 42.32358548 12.3125 39.4375 C12.70373047 38.86064453 13.09496094 38.28378906 13.49804688 37.68945312 C16.13695217 33.8952062 18.45764433 30.79859284 22.96484375 29.3828125 C26.5675209 28.91196757 28.48913795 28.76678037 31.875 30.3125 C34 32 34 32 36 34 C35.8862798 39.91345056 34.13669016 42.86330984 30 47 C25.91457645 49.95917165 21.82803799 50.83605895 16.9375 51.625 C14.29080139 52.07858189 11.64529833 52.53825497 9 53 C8.21753906 53.11085938 7.43507813 53.22171875 6.62890625 53.3359375 C4.85400842 53.87787276 4.85400842 53.87787276 3.9296875 55.66015625 C3.62289062 56.43230469 3.31609375 57.20445312 3 58 C2.54882812 58.98871094 2.09765625 59.97742188 1.6328125 60.99609375 C-4.6387068 75.31010542 -8.12776919 89.67634309 -11 105 C-8.66616952 102.66616952 -6.79243851 99.84373882 -4.7890625 97.2265625 C-3.27025634 95.33634522 -1.83204288 93.58640585 0 92 C0.66 92 1.32 92 2 92 C2.08765625 91.4534375 2.1753125 90.906875 2.265625 90.34375 C3.23235586 87.25843875 4.84458929 85.10740413 6.75 82.5 C7.42546875 81.5615625 8.1009375 80.623125 8.796875 79.65625 C12.70637282 74.94267107 16.91201299 71.42521033 23.140625 70.77734375 C27.959135 70.59385744 31.05189211 70.94340034 35 74 C33.86177317 81.73994241 29.70933154 87.80062817 24 93 C18.27018229 96.54664354 13.13966959 96.43469077 6.55859375 96.59375 C1.88005407 97.12785332 -0.66986127 98.41854473 -3.6953125 102.015625 C-12.58343798 115.90635662 -13.04395463 128.83085887 -11 145 C-10.71511719 144.41992188 -10.43023437 143.83984375 -10.13671875 143.2421875 C-9.08357821 141.16485873 -7.96570167 139.14802273 -6.8125 137.125 C-4.87899853 133.70593435 -3.16424391 130.2305746 -1.50537109 126.6706543 C1.88135719 119.52245992 4.90934519 114.06982668 12.48828125 110.98828125 C16.7418002 109.59564764 20.49908286 108.73524017 25 109 C26 110 26 110 26.08984375 111.78515625 C25.54752574 119.8921152 21.81883835 124.04693125 16.375 129.75 C12.69166974 132.65943906 8.24314307 133.77844959 3.8046875 135.10546875 C-0.77144979 136.45042855 -0.77144979 136.45042855 -4.0625 139.625 C-4.371875 140.40875 -4.68125 141.1925 -5 142 C-5.25910156 142.58007812 -5.51820313 143.16015625 -5.78515625 143.7578125 C-8.85990169 151.0513947 -8.60444736 156.46760539 -6.171875 163.88671875 C-3.96972689 170.89248334 -2.32674996 177.94312878 -0.8125 185.125 C-0.55275391 186.30964844 -0.29300781 187.49429688 -0.02539062 188.71484375 C1.48684672 195.80321207 2.54790151 202.76458261 3 210 C1.68 209.67 0.36 209.34 -1 209 C-1.10546143 208.30028076 -1.21092285 207.60056152 -1.31958008 206.87963867 C-1.81056516 203.64787524 -2.31147852 200.4177221 -2.8125 197.1875 C-2.97814453 196.08728516 -3.14378906 194.98707031 -3.31445312 193.85351562 C-4.42662594 186.7398065 -5.94282764 179.89892294 -8 173 C-8.31582031 171.93652344 -8.63164062 170.87304688 -8.95703125 169.77734375 C-9.23933594 168.84019531 -9.52164063 167.90304687 -9.8125 166.9375 C-11.19669181 162.1879258 -12.36338312 157.44042239 -13.4140625 152.60546875 C-13.66567139 151.45892822 -13.91728027 150.3123877 -14.17651367 149.13110352 C-14.67458952 146.83631134 -15.15965684 144.53864758 -15.63012695 142.23803711 C-17.52439145 133.53302185 -20.15462964 126.75963241 -27.3125 121.125 C-28.57380294 120.12248565 -29.8131637 119.0896512 -31 118 C-31 117.34 -31 116.68 -31 116 C-31.59425781 115.74089844 -32.18851562 115.48179687 -32.80078125 115.21484375 C-35.15938107 113.91195824 -36.46682588 112.61934696 -38.1875 110.5625 C-38.95126953 109.66724609 -38.95126953 109.66724609 -39.73046875 108.75390625 C-41.90577752 105.74863351 -42.13696904 103.09071287 -42.125 99.5 C-42.12757813 98.7265625 -42.13015625 97.953125 -42.1328125 97.15625 C-42 95 -42 95 -41 92 C-40.34 92 -39.68 92 -39 92 C-39 91.34 -39 90.68 -39 90 C-34.64088484 89.56408848 -32.54318561 89.64852696 -28.8125 92.0625 C-20.30038181 100.21336119 -18.00783644 112.71540618 -17 124 C-15.77162285 113.69040605 -14.79643818 103.45304346 -14.75 93.0625 C-14.74097656 92.22944336 -14.73195313 91.39638672 -14.72265625 90.53808594 C-14.74338643 86.33158712 -14.77737435 82.70672063 -17 79 C-18.90198604 77.88489657 -18.90198604 77.88489657 -21 77 C-27.11414337 71.04364097 -31.9024282 64.66029258 -33 56 C-33.00861506 50.34852101 -32.55688928 45.59431532 -29 41 C-28.505 40.505 -28.505 40.505 -28 40 C-22.72532375 40.30430825 -19.62002951 41.08645459 -16 45 C-11.10152372 52.55085937 -11.52660639 60.34585304 -11.75 69.0625 C-11.77010709 70.41859325 -11.78835039 71.77471547 -11.8046875 73.13085938 C-11.85152687 76.42132486 -11.91711138 79.71027835 -12 83 C-8.77310372 78.15965558 -7.40423469 72.52852401 -5.6315918 67.0234375 C-4.94569109 64.90035405 -4.24579732 62.7822419 -3.54492188 60.6640625 C1.18601907 47.88230766 1.18601907 47.88230766 -0.8125 35 C-5.41409766 24.68223086 -6.66499835 14.59797514 -2.8515625 3.8125 C-2 2 -2 2 0 0 Z " fill="#575859" transform="translate(437,295)"/>
<path d="M0 0 C8.91 0 17.82 0 27 0 C27.09064944 9.73644761 27.16391606 19.47261138 27.20724869 29.20938683 C27.22805434 33.73138583 27.25624229 38.25307919 27.30175781 42.77490234 C27.34546789 47.14509681 27.36918982 51.51499873 27.37950897 55.88539505 C27.38685547 57.54624659 27.40120073 59.20708353 27.42292023 60.8678093 C27.60124842 75.07843514 25.28368882 84.99228696 15.48046875 95.65234375 C6.75986997 103.99101849 -3.59774193 105.63100124 -15.140625 105.43945312 C-16.67709881 105.39770112 -18.21355716 105.35537672 -19.75 105.3125 C-21.33329764 105.28735542 -22.91663428 105.26455324 -24.5 105.24414062 C-28.33511575 105.19399528 -32.16467868 105.09609658 -36 105 C-36 96.42 -36 87.84 -36 79 C-33.95296875 78.95101562 -31.9059375 78.90203125 -29.796875 78.8515625 C-27.80776094 78.79592295 -25.81864813 78.74021631 -23.82958984 78.68261719 C-22.45044757 78.64440662 -21.07120833 78.60953998 -19.69189453 78.578125 C-17.70583033 78.53230376 -15.72008321 78.47333737 -13.734375 78.4140625 C-12.54038086 78.3826416 -11.34638672 78.3512207 -10.11621094 78.31884766 C-7.12474007 78.01276328 -5.42447657 77.74159392 -3 76 C-0.62395766 72.42462517 -0.72537064 69.15200126 -0.68115234 64.93652344 C-0.66608391 63.88226166 -0.66608391 63.88226166 -0.65071106 62.80670166 C-0.61989881 60.49093418 -0.60284964 58.17528221 -0.5859375 55.859375 C-0.56722425 54.25082405 -0.54765071 52.6422829 -0.5272522 51.03375244 C-0.47594149 46.8055194 -0.43631015 42.57725454 -0.39910889 38.34887695 C-0.35906256 34.03198379 -0.30797309 29.71522289 -0.2578125 25.3984375 C-0.16106571 16.93237537 -0.07767789 8.46625859 0 0 Z " fill="#454545" transform="translate(305,212)"/>
<path d="M0 0 C5.27467625 0.30430825 8.37997049 1.08645459 12 5 C16.99021619 12.61194837 16.46876701 20.82936207 16.25 29.5625 C16.22989497 30.96677127 16.2116513 32.37107048 16.1953125 33.77539062 C16.14845439 37.18431781 16.08285505 40.59178957 16 44 C15.01 44 14.02 44 13 44 C12.7525 43.21625 12.505 42.4325 12.25 41.625 C11.28501051 38.90431226 11.28501051 38.90431226 9.14453125 38.07421875 C2.64821097 34.82014211 -2.00197817 26.94416439 -4.25 20.3125 C-5.59154508 14.36009831 -5.18718662 8.42383936 -2.5 2.9375 C-1 1 -1 1 0 0 Z " fill="#575759" transform="translate(409,335)"/>
<path d="M0 0 C1 1 1 1 1.08984375 2.78515625 C0.54752574 10.8921152 -3.18116165 15.04693125 -8.625 20.75 C-12.30833026 23.65943906 -16.75685693 24.77844959 -21.1953125 26.10546875 C-25.90196725 27.48633049 -25.90196725 27.48633049 -29.125 30.875 C-29.558125 31.926875 -29.558125 31.926875 -30 33 C-30.66666667 34.33333333 -31.33333333 35.66666667 -32 37 C-32.66 36.67 -33.32 36.34 -34 36 C-33.38760538 31.99756373 -32.10833918 28.89986094 -30.25 25.3125 C-27.91243446 20.79949538 -27.91243446 20.79949538 -25.73828125 16.20703125 C-22.69843775 9.53149453 -19.4516398 4.83220856 -12.50390625 1.97265625 C-8.25030099 0.60113717 -4.4955288 -0.26444287 0 0 Z " fill="#57585A" transform="translate(462,404)"/>
<path d="M0 0 C5.07678579 0.12223401 7.74438375 1.57039578 11.5 4.9375 C13.36339735 8.6642947 13.22062677 12.2300635 12.6875 16.3125 C11.387044 19.46097243 10.1360648 20.92990061 7.5625 23.125 C3.54275477 24.78532955 -0.02956318 25.15975973 -4.3125 24.3125 C-7.66964291 21.66964282 -10.90754195 18.5887905 -11.68359375 14.2265625 C-11.81233663 9.78871987 -11.82823765 7.95038604 -8.9375 4.375 C-8.07125 3.694375 -7.205 3.01375 -6.3125 2.3125 C-3.9183839 -0.0816161 -3.27463689 0.01651077 0 0 Z " fill="#15A7E8" transform="translate(255.3125,163.6875)"/>
<path d="M0 0 C3.86234965 0.55176424 5.62185307 1.93142332 8 5 C11.49959363 12.43105201 12.04963382 20.05766895 10 28 C7.16729926 25.16729926 6.26623617 21.69847732 4.9375 18 C3.15740517 12.92066965 3.15740517 12.92066965 1 8 C1.55481756 13.13206245 3.26401161 17.55917504 5.16015625 22.31640625 C6.01294408 25.04136086 6.15890661 27.16531111 6 30 C0.34089649 24.64679397 -2.92371245 19.74042413 -4 12 C-3.75318824 7.14603545 -2.77726146 3.98476645 0 0 Z " fill="#D1CEC6" transform="translate(411,338)"/>
<path d="M0 0 C2.11801432 3.42844045 2.11801432 3.42844045 1.6015625 5.9296875 C-1.59543817 12.29811284 -6.15718422 16.71906141 -13 19 C-14.56118428 19.06740865 -16.1250252 19.08514456 -17.6875 19.0625 C-18.89986328 19.04896484 -18.89986328 19.04896484 -20.13671875 19.03515625 C-20.75160156 19.02355469 -21.36648438 19.01195312 -22 19 C-19.792805 16.62302077 -17.73825752 14.83095798 -15 13.0625 C-11.96700271 10.97731436 -10.21684203 8.90004981 -8 6 C-8.77085937 6.49371094 -9.54171875 6.98742187 -10.3359375 7.49609375 C-11.33882813 8.13675781 -12.34171875 8.77742188 -13.375 9.4375 C-14.87160156 10.39462891 -14.87160156 10.39462891 -16.3984375 11.37109375 C-19 13 -19 13 -21 14 C-19.64527694 8.41176736 -15.41886827 5.30998246 -11 2 C-7.25658188 -0.2185895 -4.33861328 -0.16686974 0 0 Z " fill="#D4D1C9" transform="translate(466,369)"/>
<path d="M0 0 C2.5 1.5 2.5 1.5 4 4 C4.791013 8.02098277 4.62153384 10.96411027 2.5 14.5 C-1.03588973 16.62153384 -3.97901723 16.791013 -8 16 C-10.5 14.5 -10.5 14.5 -12 12 C-12.791013 7.97901723 -12.62153384 5.03588973 -10.5 1.5 C-6.96411027 -0.62153384 -4.02098277 -0.791013 0 0 Z " fill="#1DA9E8" transform="translate(300,328)"/>
<path d="M0 0 C2.5 1.5 2.5 1.5 4 4 C4.791013 8.02098277 4.62153384 10.96411027 2.5 14.5 C-1.03588973 16.62153384 -3.97901723 16.791013 -8 16 C-10.5 14.5 -10.5 14.5 -12 12 C-12.791013 7.97901723 -12.62153384 5.03588973 -10.5 1.5 C-6.96411027 -0.62153384 -4.02098277 -0.791013 0 0 Z " fill="#1DA9E8" transform="translate(220,328)"/>
<path d="M0 0 C3.35446138 0.28752526 4.90853218 0.92637956 7.5625 3.0625 C13.645025 10.39272244 14.91522488 17.63667788 16 27 C13.03277711 25.51638856 12.53230262 23.27658557 11.125 20.3125 C9.00365176 15.95021772 6.83695223 11.9280877 4 8 C5.54269924 12.72065967 7.07794619 17.41664092 9 22 C5.88036045 20.63981009 3.99165178 19.16739866 1.8125 16.5625 C1.30332031 15.96566406 0.79414063 15.36882812 0.26953125 14.75390625 C-2.42106867 11.03673898 -2.23747988 7.43295784 -2 3 C-1.34 2.01 -0.68 1.02 0 0 Z " fill="#D2D0C7" transform="translate(400,388)"/>
<path d="M0 0 C-1.16562479 5.29829449 -2.67221445 9.47502328 -7 13 C-10.8693763 15.30406119 -14.78579829 17.4002218 -19 19 C-19.66 18.67 -20.32 18.34 -21 18 C-20.33613281 17.40832031 -19.67226563 16.81664062 -18.98828125 16.20703125 C-18.10527344 15.41683594 -17.22226562 14.62664062 -16.3125 13.8125 C-15.44238281 13.03519531 -14.57226562 12.25789063 -13.67578125 11.45703125 C-11.04826792 9.04432193 -8.52239891 6.52239891 -6 4 C-10.62 7.3 -15.24 10.6 -20 14 C-20 9.66749456 -17.86707116 7.04712877 -15 4 C-10.13583697 0.49943079 -5.90746296 -0.49228858 0 0 Z " fill="#D3D0C7" transform="translate(460,408)"/>
<path d="M0 0 C3 2 3 2 3.5 4.25 C2.80058344 8.0967911 0.81622215 10.43443637 -2 13 C-5.80548925 15.37843078 -8.51139866 16.39605306 -13 16 C-10.14723863 13.06799526 -7.34920216 10.35684596 -4 8 C-8.30764815 9.56641751 -12.06171464 11.68336156 -16 14 C-14.49665796 8.65478385 -10.82879909 4.86491984 -7 1 C-4.47454232 -0.26272884 -2.80127043 -0.20497101 0 0 Z " fill="#D2CFC7" transform="translate(466,327)"/>
<path d="M0 0 C1.32 0.66 2.64 1.32 4 2 C4.02726927 4.35424675 4.04696719 6.70816962 4.0625 9.0625 C4.07410156 10.37347656 4.08570313 11.68445313 4.09765625 13.03515625 C4.00452335 16.8163519 3.61448726 20.27920707 3 24 C2.67 24 2.34 24 2 24 C1.34 19.05 0.68 14.1 0 9 C-0.33 13.62 -0.66 18.24 -1 23 C-1.33 23 -1.66 23 -2 23 C-3.30043733 15.19737604 -3.62035282 8.55278167 -1 1 C-0.67 0.67 -0.34 0.34 0 0 Z " fill="#C8C5BE" transform="translate(438,299)"/>
<path d="M0 0 C0.66 0.33 1.32 0.66 2 1 C1.34 1.66 0.68 2.32 0 3 C0.33 3.66 0.66 4.32 1 5 C-1.31 5.66 -3.62 6.32 -6 7 C-4.02 4.69 -2.04 2.38 0 0 Z " fill="#CCC9C1" transform="translate(445,420)"/>
</svg>
